<svg id="Layer_1" data-name="Layer 1" xmlns="http://www.w3.org/2000/svg" xmlns:xlink="http://www.w3.org/1999/xlink" viewBox="0 0 3071.81 1043.23"><defs><style>.cls-1{fill:none;}.cls-2{clip-path:url(#clip-path);}.cls-3{fill:url(#linear-gradient);}.cls-4{fill:url(#linear-gradient-2);}.cls-5{fill:url(#linear-gradient-3);}.cls-6{fill:url(#linear-gradient-4);}.cls-7{fill:url(#linear-gradient-5);}.cls-8{fill:url(#linear-gradient-6);}.cls-9{fill:url(#linear-gradient-7);}.cls-10{fill:url(#linear-gradient-8);}.cls-11{fill:url(#linear-gradient-9);}.cls-12{fill:url(#linear-gradient-10);}.cls-13{fill:url(#linear-gradient-11);}.cls-14{fill:url(#linear-gradient-12);}.cls-15{fill:url(#linear-gradient-13);}.cls-16{fill:url(#linear-gradient-14);}.cls-17{fill:url(#linear-gradient-15);}.cls-18{fill:url(#linear-gradient-16);}.cls-19{fill:url(#linear-gradient-17);}</style><clipPath id="clip-path"><path class="cls-1" d="M2152.39,236l0,0c32.9,42.72-44,32.05-44,49,0-10.69,15.26,20.38,7.86,13,29.34,29.33,26.59,63.18,53,89.63,21.44,21.44,67.22,102.64,80.1,120.39,57.27,81.91,38.67,32.37,59.89,35.06,51,6.45,20.61,22.78,40,6.21a99.08,99.08,0,0,0,23.38-30.13c23.44-45.27,160.68-21,122.28-106.79-84.06-4.25-55.21-49.16-105.48-70.52-47.41-20.15-10.91-25.78-39.71-25.78-50.39,0-36.51-22.59-88.89-75-36.88-36.89-65.69-48.94-46.22-24.59C2228.82,234.27,2162.22,226.15,2152.39,236Z"/></clipPath><linearGradient id="linear-gradient" x1="2018.19" y1="-0.69" x2="3124.28" y2="57.15" gradientTransform="matrix(3.14, 0.78, -0.68, 0.24, -6368.91, -1514.33)" gradientUnits="userSpaceOnUse"><stop offset="0.44" stop-color="#020202"/><stop offset="0.81" stop-color="#12ff00"/></linearGradient><linearGradient id="linear-gradient-2" x1="2019.29" y1="4.96" x2="3110.55" y2="62.01" gradientTransform="matrix(2.93, 0.72, -0.62, 0.28, -5734.19, -1344.28)" xlink:href="#linear-gradient"/><linearGradient id="linear-gradient-3" x1="2033.87" y1="4.66" x2="3090.21" y2="59.89" gradientTransform="matrix(2.74, 0.65, -0.57, 0.32, -5141.36, -1187.05)" xlink:href="#linear-gradient"/><linearGradient id="linear-gradient-4" x1="2065.67" y1="0.44" x2="3062.02" y2="52.54" gradientTransform="matrix(2.55, 0.59, -0.52, 0.36, -4587.68, -1041.89)" xlink:href="#linear-gradient"/><linearGradient id="linear-gradient-5" x1="2112.42" y1="-13.08" x2="3025.07" y2="34.64" gradientTransform="matrix(2.38, 0.53, -0.47, 0.4, -4070.65, -908.12)" xlink:href="#linear-gradient"/><linearGradient id="linear-gradient-6" x1="2168.52" y1="-30.45" x2="2981" y2="12.03" gradientTransform="matrix(2.22, 0.48, -0.42, 0.44, -3587.88, -785.09)" xlink:href="#linear-gradient"/><linearGradient id="linear-gradient-7" x1="2229.06" y1="-50.4" x2="2930.67" y2="-13.71" gradientTransform="matrix(2.07, 0.43, -0.37, 0.48, -3137.17, -672.21)" xlink:href="#linear-gradient"/><linearGradient id="linear-gradient-8" x1="2288.73" y1="-69.51" x2="2876.91" y2="-38.76" gradientTransform="matrix(1.93, 0.38, -0.33, 0.53, -2716.45, -568.94)" xlink:href="#linear-gradient"/><linearGradient id="linear-gradient-9" x1="2343.92" y1="-73.49" x2="2824.59" y2="-48.36" gradientTransform="matrix(1.8, 0.33, -0.29, 0.57, -2323.79, -474.76)" xlink:href="#linear-gradient"/><linearGradient id="linear-gradient-10" x1="2391.83" y1="-39.52" x2="2781.47" y2="-19.15" gradientTransform="matrix(1.68, 0.28, -0.25, 0.62, -1957.4, -389.2)" xlink:href="#linear-gradient"/><linearGradient id="linear-gradient-11" x1="2435.22" y1="-6.57" x2="2764.43" y2="10.65" gradientTransform="matrix(1.56, 0.24, -0.21, 0.67, -1615.59, -311.85)" xlink:href="#linear-gradient"/><linearGradient id="linear-gradient-12" x1="2478.74" y1="6.68" x2="2776.3" y2="22.24" gradientTransform="matrix(1.45, 0.2, -0.17, 0.72, -1296.8, -242.29)" xlink:href="#linear-gradient"/><linearGradient id="linear-gradient-13" x1="2512.06" y1="12.33" x2="2791.98" y2="26.97" gradientTransform="matrix(1.35, 0.16, -0.14, 0.77, -999.55, -180.18)" xlink:href="#linear-gradient"/><linearGradient id="linear-gradient-14" x1="2538.57" y1="15.54" x2="2808.73" y2="29.67" gradientTransform="matrix(1.25, 0.12, -0.1, 0.83, -722.48, -125.18)" xlink:href="#linear-gradient"/><linearGradient id="linear-gradient-15" x1="2561.56" y1="20.82" x2="2824.69" y2="34.57" gradientTransform="matrix(1.16, 0.08, -0.07, 0.88, -464.31, -77)" xlink:href="#linear-gradient"/><linearGradient id="linear-gradient-16" x1="2585.1" y1="32.7" x2="2834.71" y2="45.75" gradientTransform="matrix(1.08, 0.04, -0.03, 0.94, -223.85, -35.35)" xlink:href="#linear-gradient"/><linearGradient id="linear-gradient-17" x1="2584.38" y1="54.47" x2="2831.11" y2="67.37" gradientTransform="matrix(1, 0, 0, 1, 0, 0)" xlink:href="#linear-gradient"/></defs><g class="cls-2"><path class="cls-3" d="M2986.5,1042.81c-1.65-.71-3.35-1.39-5-2.08C2871.39,996,2800.07,899.26,2749.27,795c-33.5-68.73-52.22-146.1-90.24-212.33-33.07-57.62-86.16-35.18-138.59-17.48-151.85,51.24-309.45,72.7-468,40.13-93.3-19.16-183-54.1-271.51-88.68-99.08-38.73-197.31-79.59-296.4-118.32-196.91-77-397.07-145.28-602.31-196.5C724.58,162.51,564.75,133.56,404,110.13c-91.37-13.31-183.19-24.3-274.1-40.52-25.54-4.56-60.73-6.42-83.8-19.37a14.44,14.44,0,0,1,5.4-.05c25.62,4.55,58.19,11.93,87,16.47,93,14.66,186.58,25,279.83,37.57,160.93,21.74,321,49.19,478.92,87.33,205.44,49.63,405.79,116.87,602.4,194.09C1599.89,425,1699.08,466.86,1799,507c86.33,34.67,174,70.35,264.73,92,154.63,36.92,316,16.47,464-37.13,26.89-9.73,59.12-26.34,88.63-23.54,21.86,2.07,35,18.62,45,36.63,37,66.25,55.74,142.71,89.21,211,34.45,70.3,77.83,138.3,136.76,190.67a366.25,366.25,0,0,0,63.25,45.48c10.94,6.16,26.91,10.28,36.57,18.14,1.3,1.06,3.34,1.88,4.66,2.86A15.73,15.73,0,0,1,2986.5,1042.81Z"/><path class="cls-4" d="M2991.54,1009.3c-1.65-.91-3.34-1.78-5-2.66-103.4-53.82-177.83-140-232-242.61-33-62.58-53.55-130-83.78-193.63-7.47-15.74-17-35.32-34.9-41.11-20.44-6.62-44.86,5.6-63.34,13-42.46,17.05-84.59,34-129,45.51C2365,608.17,2283.26,614,2202.35,609.48c-87.24-4.82-168.2-30.49-249.71-60.59-86.1-31.8-170.62-67.78-255.37-102.95-326.35-135.42-657.5-249.71-1005.92-312.72-99-17.9-198.54-32.08-298.16-45.83-31.4-4.33-71.69-3.82-101.29-16.2a17.31,17.31,0,0,1,6.85-.67C329.32,73.73,366.48,79,400,83c100.25,11.86,200.37,24.84,300,41.49C1049,182.84,1381.4,293.15,1707,430.07c84.57,35.56,168.69,72.28,254.2,105.53,82.94,32.26,164,59.74,253.28,66.32,129.11,9.52,247.94-13.18,365.36-65.21,17-7.52,40.43-21.17,59.82-15.52,17,5,25.62,24.47,32.33,39.19,29.33,64.36,49.95,131.73,83.14,194.55,35.48,67.17,80.08,130.37,136.68,181.44a486.42,486.42,0,0,0,62.36,47.78c11.23,7.22,27.63,13,37.29,22.18,1.33,1.26,3.29,2.28,4.64,3.49C2994.59,1010.15,2993.18,1009.61,2991.54,1009.3Z"/><path class="cls-5" d="M2980.89,966.82c-1.75-1.17-3.54-2.28-5.33-3.4C2880.75,904,2807,823.67,2753.19,725.26c-30.94-56.6-51.67-116.64-75.64-176.22-5.19-12.9-11.37-32.65-24.77-39.6s-29.08,1.86-41.09,7.66c-30.18,14.57-59.34,30.5-90.81,42.32-55.93,21-115.14,31.92-174.72,35.05-86.79,4.56-178.2-2.8-260.69-30.68-73.65-24.88-145.35-55.34-216.8-85.86-294.16-125.66-588.35-244.86-900.82-317.42C870.64,137.93,772.59,119.42,674.16,103c-25.67-4.3-51.4-8.32-77-13-8.49-1.53-18.78-2.25-26.39-6.28a16.91,16.91,0,0,1,7.42-.89C609.84,86.76,649,92.74,684,97.74c98.85,14.15,197.28,31.19,294.89,52.31,314.28,68,610.24,184.55,903.94,313.21,71.07,31.13,142.19,62.53,215.18,89,82.5,29.88,180.15,37.35,267.55,33.5,93.69-4.13,173.35-32.52,254.24-77,10.43-5.74,24.87-15.49,37-9.05,12.37,6.59,17.56,27.34,22,39.24,22.57,61.19,44,121.91,75.48,179.33,34.82,63.5,78.52,122.4,131.43,172a610.45,610.45,0,0,0,60.61,49.87c10.32,7.45,25.87,14.25,34.38,23.75,1.17,1.3,2.92,2.46,4,3.7C2983.29,967.69,2982.24,967.09,2980.89,966.82Z"/><path class="cls-6" d="M2954.59,914.91c-27.62-21.48-55.58-41.66-81-65.91-54.43-51.87-99.44-113.27-134-180-25.88-50-43.46-102.35-60.91-155.65-2.8-8.55-6.33-27.17-16.07-31.16-9.89-4.05-22.4,7.52-29.76,12.53-64.77,44.09-134.39,70.31-213,77.44-85.2,7.74-172.91-3-256.57-18.89-70.46-13.35-138.21-49.11-203.47-78-260-115.31-519.51-227.17-794.8-301.4-82.34-22.2-165.42-41.07-248.69-59.35-16.65-3.66-38.8-5.06-54.2-12.82-6.07-3.06-8.45-5.83.48-4.35,30.64,5.06,70.68,13,105.24,19.59,92.88,17.64,185.15,38.49,276.4,63.24,273,74,527.94,189,785.22,304.48,30.23,13.57,60.48,27.52,91.36,39.58,42.74,16.71,92.39,22.2,137.71,28.35,73.4,10,151.4,15.66,224.8,2.61,64.84-11.52,114.92-39.46,166.78-77.63,24.58-18.09,26.28,12.83,31.72,32.77,15.34,56.19,35.67,110.51,63.27,161.9a707.92,707.92,0,0,0,134.34,176.87c18,17.2,37,33.31,56.53,48.75,7.1,5.61,15.69,10.88,21.47,17.82C2956.38,915.74,2955.64,915.15,2954.59,914.91Z"/><path class="cls-7" d="M2913.74,853.83c-76.29-68.05-142.28-141.43-187-234.73-21.28-44.43-37.1-91.27-46.05-139.73-3.53-19.08-1.55-36.9-19.38-18.05-40.47,42.79-93,68.86-151.21,78.1-66.4,10.53-134.28,9.39-201,2-73.69-8.14-149.1-20.1-216.84-50.78C1865.94,388.11,1643.79,280.33,1407,203c-73.65-24.06-148.11-45.21-222.6-66.47-15-4.28-36-6.87-49.42-15.29-5.14-3.23-8.73-7.53.2-5.65,27.39,5.79,66.82,16.12,99,24q129.55,31.54,256.46,72.84c117.76,38.62,233.08,84.23,346.17,134.87,58.69,26.29,116.77,53.9,174.69,81.84,26.43,12.74,52.83,25.56,79.3,38.21,34.56,16.52,67.51,27.12,105,35.7,71.69,16.41,145,28,218.67,29.19,56.13.88,119.26-1.46,172.32-21.81,24.69-9.47,48.3-23.71,67.08-42.44,5.29-5.28,15.94-25.89,22.29-28.3,5-1.89,1.51-1.52,3.26,5.37,3.4,13.4,2.44,29,4.95,42.78,9.93,54.61,31.11,107.2,57.57,155.8,31.9,58.57,72.7,112.08,119.58,159.44,14.19,14.33,29.08,27.85,43.93,41.48C2908,846.84,2918.22,853.82,2913.74,853.83Z"/><path class="cls-8" d="M2860.83,784.79c-12.74-13.14-25.55-26.14-37.67-39.86-51-57.74-93.77-124.19-119.9-196.9-11-30.65-19.67-63.07-21.3-95.74-.54-10.83-2.34-28.14,4.61-37.35,2.53,9-5.94,21.37-10.89,28.46-24,34.31-62.46,47.75-101.65,57.23-66.09,16-135.1,17.22-202.55,11.07-44.14-4-88-11.32-131.27-20.68-38.83-8.39-82.25-15.16-117.87-32.77C2001,398.24,1880.52,336.8,1756,283.47c-95.12-40.73-192-76.78-289.59-111-24.5-8.58-49.79-16.24-73.5-26.89-4.13-1.86-18.24-13-6.77-10.18,22.38,5.56,59.68,18.11,87.85,26.51,75.09,22.4,149.43,47.24,222.68,75.09,99.16,37.69,196.12,80.83,291.25,127.72,47.47,23.41,93.7,50.38,141.82,72.34,29.82,13.61,64.57,20.24,96.32,28.11,32.79,8.13,65.85,15.18,99.18,20.65,101.39,16.66,210.6,20.74,308.09-16.75,24-9.23,45-19.52,56.9-43.32,2.09-4.19,9.34-19.22,4.77-24-10.65-11.23-13.59,37.92-13.51,42,.93,48.44,17.49,96.86,37.43,140.48,24.64,53.91,57.78,103.78,95.93,149C2819.59,738.94,2862.17,782.77,2860.83,784.79Z"/><path class="cls-9" d="M2800.05,710.14C2750.55,649.37,2709,579,2689,502.78c-8.67-33.1-16.22-73.24-5.38-106.81,3.52-10.91,17.81-33.17,26.28-13.12,17.89,42.3-66.3,67.14-91.25,75.16-87.09,28-181.91,23.89-271.08,9.29-56.93-9.32-113-23.5-168.19-40.14-47.68-14.36-88.66-38.82-132.53-62Q1931,304,1811.38,250.39c-54.58-24.31-110-46.57-164.73-70.59-3.4-1.49-49.18-29.58-36.2-26.1,17.58,4.72,52,19.21,76,27.73,63.68,22.57,126.67,47,188.62,74,79.88,34.77,157.89,73.65,234.23,115.6,48.87,26.85,103,41.21,156.92,55.14,50,12.93,100.76,23.33,152.14,28.81,80.79,8.62,166.69,5.81,241.77-28.35,13.45-6.11,95.93-45.74,55.4-67.3-20-10.62-32.05,22.15-35.14,35.61-9.33,40.61.11,85.46,12.36,124.38C2714.15,587.38,2754.4,658.36,2800.05,710.14Z"/><path class="cls-10" d="M2737.72,633.72c-36-56.73-62.06-126.69-66.08-193.86-1.8-30.1,0-66.74,19-91.92,10.1-13.39,32.12-25.9,46.52-10.48,20.65,22.11-71.79,68.49-89.1,75.4-67.68,27-143.26,28.75-214.8,20.9-91.84-10.07-181.62-36.23-268.44-67-37.09-13.15-70.62-36.83-105-55.9q-42.68-23.69-86.06-46.06c-45.31-23.43-91.52-45.12-136.59-69-3-1.59-41.82-31.34-31.06-28.45,15.8,4.25,55.42,24.16,79.81,34.43,64.62,27.22,128.17,56.94,190,90.1,38.89,20.87,74.85,42.22,116.72,56.78,50.15,17.45,101,33.13,152.72,45.27,82.35,19.33,170.43,31.62,254.33,14.71C2657.3,397,2717.45,369,2749.51,317.29c-24-14.16-50.11,4.52-62.67,24.94-21.35,34.67-21.11,80.55-15.69,119.48,6.09,43.81,20.66,86.41,39.9,126.12C2717.35,600.83,2726.89,625.71,2737.72,633.72Z"/><path class="cls-11" d="M2682.78,561.08c-17.84-43.26-24.9-95-23-141.39,1.91-46.71,23.66-138.14,87.18-134.45-12.88,50.67-74,81.79-119.41,95.11-96.13,28.22-202.39,8.55-296.54-17.86-56.52-15.85-112.81-35.12-166.78-58.23-39.17-16.78-76-45.6-112.8-67.47-22.92-13.62-46.85-26.47-68.29-42.4-3.74-2.79-17.32-21.95-10.22-20,6.59,1.79,24.48,13.65,35.9,19.21,28.78,14,57.47,28.2,85.65,43.39,18,9.68,35.62,19.85,53.26,30.1,23.23,13.51,48.63,22.21,73.81,31.52C2276.81,319,2333,337.51,2390.38,351c83.88,19.76,178.85,32.61,261.61.94,26.8-10.25,89.64-41.52,86.42-78.81-27.14,5.36-49.25,35.93-60.7,59-16.17,32.64-21.55,69.93-21.05,106.05a354.51,354.51,0,0,0,13.47,91.08C2672.35,537.22,2676.31,557.39,2682.78,561.08Z"/><path class="cls-12" d="M2647.28,499.84c-6.29-54.82,3.43-116.35,26.93-166a203.46,203.46,0,0,1,30.61-47.05c2.51-2.88,10.93-15.31,15.55-15.83,9.27-1-4.29,14.28-7.07,17.44-42.8,48.92-118.15,59.8-179.24,57.84-109.42-3.51-217.77-43.1-316.51-87.73-33.71-15.23-63.48-33.33-91.62-57.39-4.63-4-19.46-28.72-13.71-27.18,4,1.08,17.84,12.56,26.32,17.59,23.69,14.05,46.53,27.73,72,38.38,79,33,160.12,63.6,244.13,81,83.06,17.15,196.36,25.4,260.68-43-25.27,36.87-48.19,76.79-59.65,120.2a332.54,332.54,0,0,0-11.09,84.79C2644.64,478.73,2643.76,497.54,2647.28,499.84Z"/><path class="cls-13" d="M2647.1,460c15.14-54.87,30.72-109.56,47.29-164,1.83-6,13.87-32.5,5.39-35.58-6.56-2.38-41.54,20.71-48.06,23.12-84.13,31-180.67,7.69-261.88-21.32-44.32-15.84-88.59-34.69-128.85-59.22-5.93-3.61-37.85-39.1-30.56-37.36,7.46,1.79,43.13,23.27,60,30.58,41.53,18,83.88,34.4,127,48.05,75.48,23.87,157.2,41,235.09,18.47,8.9-2.57,32.41-15.36,41.51-8,10.67,8.62-1.13,42.82-3.21,52.54C2687.44,323.27,2657.25,461.62,2647.1,460Z"/><path class="cls-14" d="M2688.57,427c4.22-18.68,3.5-39.57,4.29-58.6,1.2-28.66,2.41-57.69.28-86.34-1-12.89-1.21-34.61-14.37-41.88-11.69-6.46-30.44,1.06-42.35,3.31-62.43,11.77-124.36,1-183.63-20.31-10.44-3.76-123.49-80.06-116.08-78.81,3.93.66,29.63,17.43,41.75,22.82a922.65,922.65,0,0,0,91.32,35.08c55.15,17.78,107.68,24.05,165.2,22.32,43.76-1.32,55.15,24.47,60.34,65.35,3.93,30.92,4,62.61,2.08,93.68C2696.83,392.64,2697.54,424.23,2688.57,427Z"/><path class="cls-15" d="M2732.31,380.79c-.92-38.42-20.46-84.55-36.42-118.84-16.36-35.16-36-56.32-75.6-58.5-45.67-2.51-87.78-8.2-130.43-26.16-10.19-4.29-77.52-64-72.83-63.18,2.26.38,18.88,13.16,27.5,17.39,19.56,9.6,39.72,18.11,60.12,25.75,37.37,14,75.18,19.43,113.57,28.92,40.54,10,65.49,40.39,84,76.4C2708.91,275.55,2753,372.64,2732.31,380.79Z"/><path class="cls-16" d="M2773.11,323.61c-4.4-13-15.09-25-23.21-35.86a623.28,623.28,0,0,0-50.55-59.85c-26.8-27.76-56.42-52.08-93.69-63.73-17.82-5.57-129.26-84.8-127-84.3,2.58.57,38.76,26.83,52.32,34,24,12.65,48.92,22.94,73.29,34.73,40.2,19.45,75.79,46.81,107.18,78.46C2720.19,235.84,2792.16,311.32,2773.11,323.61Z"/><path class="cls-17" d="M2806.32,258.29c-8.06-10.78-22.68-18.52-33.68-26-22.6-15.4-45.77-30-69.17-44.1-35.69-21.55-72.34-41.16-108.93-61.08-17.2-9.37-66.19-80.85-66.19-80.85.87.36,16,20.36,22.49,27.2,13.94,14.82,26.82,29,43.95,40.37,39.31,26.05,82.86,45.71,123.42,69.73C2726.91,188.69,2822.05,245.32,2806.32,258.29Z"/><path class="cls-18" d="M2826.59,189.33c-11.32-8.49-28.73-12-41.9-16.5-27.33-9.36-54.8-18.33-82.08-27.85-37.8-13.19-81.63-25.43-114-50.06-19.08-14.51-16.17-77-16.17-77,.2.17.09,17.26.61,24.65,1.25,17.82,3.28,30.79,18.05,42.82,34.3,27.94,85.53,38.81,126.5,52.42C2728.39,141.39,2837.2,175.4,2826.59,189.33Z"/><path class="cls-19" d="M2828.07,123.38c-14.23-5.17-31.75-4.77-46.7-6.34-26.95-2.85-53.92-5.71-80.73-9.73-32.76-4.92-86.59-9.15-111.25-35.24C2568.69,50.16,2616.9,0,2616.9,0c.11.23-37.64,51.13-22.53,68.71,9.12,10.61,27.31,14.9,40,18.19,24.76,6.42,50.55,9.38,75.9,12.4C2719.12,100.36,2833.08,110,2828.07,123.38Z"/></g></svg>